<svg width="16" height="16" viewBox="0 0 16 16" fill="none" xmlns="http://www.w3.org/2000/svg">
<g clip-path="url(#clip0_20_648)">
<path d="M16.0001 2.66663H4.66675V4.66663H16.0001V2.66663Z" fill="#292828"/>
<path d="M16.0001 7.33337H4.66675V9.33337H16.0001V7.33337Z" fill="#292828"/>
<path d="M16.0001 12H4.66675V14H16.0001V12Z" fill="#292828"/>
<path d="M1.66667 5.33333C2.58714 5.33333 3.33333 4.58714 3.33333 3.66667C3.33333 2.74619 2.58714 2 1.66667 2C0.746192 2 0 2.74619 0 3.66667C0 4.58714 0.746192 5.33333 1.66667 5.33333Z" fill="#292828"/>
<path d="M1.66667 9.66671C2.58714 9.66671 3.33333 8.92052 3.33333 8.00004C3.33333 7.07957 2.58714 6.33337 1.66667 6.33337C0.746192 6.33337 0 7.07957 0 8.00004C0 8.92052 0.746192 9.66671 1.66667 9.66671Z" fill="#292828"/>
<path d="M1.66667 14.3333C2.58714 14.3333 3.33333 13.5871 3.33333 12.6667C3.33333 11.7462 2.58714 11 1.66667 11C0.746192 11 0 11.7462 0 12.6667C0 13.5871 0.746192 14.3333 1.66667 14.3333Z" fill="#292828"/>
</g>
<defs>
<clipPath id="clip0_20_648">
<rect width="16" height="16" fill="white"/>
</clipPath>
</defs>
</svg>
