<svg width="16" height="16" viewBox="0 0 16 16" fill="none" xmlns="http://www.w3.org/2000/svg">
<path d="M16 7.33333V3C16 1.71333 14.9533 0.666667 13.6667 0.666667H11.9693L10.9693 0H9C7.71333 0 6.66667 1.04667 6.66667 2.33333V3.33333H2V0H0V11.6667C0 12.9533 1.04667 14 2.33333 14H6.66667V16H16V11.6667C16 10.38 14.9533 9.33333 13.6667 9.33333H11.9693L10.9693 8.66667H9C7.71333 8.66667 6.66667 9.71333 6.66667 11V12H2.33333C2.14933 12 2 11.85 2 11.6667V5.33333H6.66667V7.33333H16ZM8.66667 2.33333C8.66667 2.15 8.816 2 9 2H10.364L11.364 2.66667H13.6667C13.8507 2.66667 14 2.81667 14 3V5.33333H8.66667V2.33333ZM8.66667 11C8.66667 10.8167 8.816 10.6667 9 10.6667H10.364L11.364 11.3333H13.6667C13.8507 11.3333 14 11.4833 14 11.6667V14H8.66667V11Z" fill="#292828"/>
</svg>
