<svg width="16" height="16" viewBox="0 0 16 16" fill="none" xmlns="http://www.w3.org/2000/svg">
<g clip-path="url(#clip0_33_899)">
<path d="M8 9.33331C7.46957 9.33331 6.96086 9.54403 6.58579 9.9191C6.21071 10.2942 6 10.8029 6 11.3333V16.0173H10V11.3333C10 10.8029 9.78929 10.2942 9.41421 9.9191C9.03914 9.54403 8.53043 9.33331 8 9.33331Z" fill="#4DC1C8"/>
<path d="M8.892 0.55533C8.64716 0.334954 8.32941 0.213013 8 0.213013C7.67059 0.213013 7.35284 0.334954 7.108 0.55533L0 6.95266V13.886C0 14.4518 0.224761 14.9944 0.624839 15.3945C1.02492 15.7946 1.56754 16.0193 2.13333 16.0193H4.66667V11.3333C4.66667 10.4493 5.01786 9.60143 5.64298 8.97631C6.2681 8.35119 7.11595 8 8 8C8.88406 8 9.7319 8.35119 10.357 8.97631C10.9821 9.60143 11.3333 10.4493 11.3333 11.3333V16.0173H13.8667C14.4325 16.0173 14.9751 15.7926 15.3752 15.3925C15.7752 14.9924 16 14.4498 16 13.884V6.95066L8.892 0.55533Z" fill="#4DC1C8"/>
</g>
<defs>
<clipPath id="clip0_33_899">
<rect width="16" height="16" fill="white"/>
</clipPath>
</defs>
</svg>
