<svg width="16" height="16" viewBox="0 0 16 16" fill="none" xmlns="http://www.w3.org/2000/svg">
<g clip-path="url(#clip0_33_1013)">
<path d="M14.6667 0.666687H6.69133V2.66669H5.33333V0.666687H4V2.66669H2.642V0.666687H1.33333C0.979711 0.666687 0.640573 0.807163 0.390524 1.05721C0.140476 1.30726 0 1.6464 0 2.00002L0 3.33335C0 3.68698 0.140476 4.02611 0.390524 4.27616C0.640573 4.52621 0.979711 4.66669 1.33333 4.66669H14.6667C15.0203 4.66669 15.3594 4.52621 15.6095 4.27616C15.8595 4.02611 16 3.68698 16 3.33335V2.00002C16 1.6464 15.8595 1.30726 15.6095 1.05721C15.3594 0.807163 15.0203 0.666687 14.6667 0.666687Z" fill="#292828"/>
<path d="M14.6667 6H6.69133V8H5.33333V6H4V8H2.642V6H1.33333C0.979711 6 0.640573 6.14048 0.390524 6.39052C0.140476 6.64057 0 6.97971 0 7.33333L0 8.66667C0 9.02029 0.140476 9.35943 0.390524 9.60948C0.640573 9.85952 0.979711 10 1.33333 10H14.6667C15.0203 10 15.3594 9.85952 15.6095 9.60948C15.8595 9.35943 16 9.02029 16 8.66667V7.33333C16 6.97971 15.8595 6.64057 15.6095 6.39052C15.3594 6.14048 15.0203 6 14.6667 6Z" fill="#292828"/>
<path d="M14.6667 11.3333H6.69133V13.3333H5.33333V11.3333H4V13.3333H2.642V11.3333H1.33333C0.979711 11.3333 0.640573 11.4738 0.390524 11.7238C0.140476 11.9739 0 12.313 0 12.6666L0 14C0 14.3536 0.140476 14.6927 0.390524 14.9428C0.640573 15.1928 0.979711 15.3333 1.33333 15.3333H14.6667C15.0203 15.3333 15.3594 15.1928 15.6095 14.9428C15.8595 14.6927 16 14.3536 16 14V12.6666C16 12.313 15.8595 11.9739 15.6095 11.7238C15.3594 11.4738 15.0203 11.3333 14.6667 11.3333Z" fill="#292828"/>
</g>
<defs>
<clipPath id="clip0_33_1013">
<rect width="16" height="16" fill="white"/>
</clipPath>
</defs>
</svg>
