<svg width="16" height="16" viewBox="0 0 16 16" fill="none" xmlns="http://www.w3.org/2000/svg">
<path d="M12.6666 5.616V4.66666C12.6666 2.08934 10.5773 0 7.99991 0C5.42256 0 3.33325 2.08934 3.33325 4.66666V5.616C2.11994 6.14553 1.335 7.34284 1.33325 8.66666V12.6667C1.33544 14.5067 2.82653 15.9978 4.66656 16H11.3332C13.1733 15.9978 14.6643 14.5067 14.6666 12.6667V8.66666C14.6648 7.34284 13.8799 6.14553 12.6666 5.616ZM8.66656 11.3333C8.66656 11.7015 8.3681 12 7.99991 12C7.63172 12 7.33325 11.7015 7.33325 11.3333V10C7.33325 9.63181 7.63172 9.33334 7.99991 9.33334C8.3681 9.33334 8.66656 9.63181 8.66656 10V11.3333ZM11.3333 5.33334H4.66656V4.66669C4.66656 2.82575 6.15894 1.33334 7.99991 1.33334C9.84088 1.33334 11.3333 2.82572 11.3333 4.66669V5.33334Z" fill="#F3BD53"/>
</svg>
