<svg width="16" height="16" viewBox="0 0 16 16" fill="none" xmlns="http://www.w3.org/2000/svg">
<g clip-path="url(#clip0_20_655)">
<path d="M12.5999 11.184C13.6643 9.76165 14.1503 7.98886 13.9601 6.22254C13.77 4.45622 12.9177 2.82751 11.575 1.66427C10.2323 0.50102 8.49877 -0.110394 6.72337 -0.0468985C4.94798 0.0165966 3.26255 0.750286 2.00636 2.00648C0.750164 3.26267 0.0164746 4.9481 -0.0470206 6.7235C-0.110516 8.49889 0.500898 10.2324 1.66414 11.5751C2.82739 12.9179 4.4561 13.7701 6.22242 13.9602C7.98874 14.1504 9.76152 13.6644 11.1839 12.6L14.5839 16L15.9999 14.5867L12.5999 11.184ZM6.99992 12C6.01101 12 5.04431 11.7068 4.22206 11.1574C3.39982 10.608 2.75896 9.82709 2.38052 8.91346C2.00208 7.99983 1.90306 6.99449 2.09599 6.02459C2.28892 5.05468 2.76512 4.16377 3.46438 3.4645C4.16364 2.76524 5.05456 2.28904 6.02446 2.09611C6.99437 1.90319 7.9997 2.0022 8.91333 2.38064C9.82696 2.75908 10.6079 3.39994 11.1573 4.22219C11.7067 5.04443 11.9999 6.01113 11.9999 7.00004C11.9987 8.32574 11.4715 9.59679 10.5341 10.5342C9.59667 11.4716 8.32562 11.9988 6.99992 12Z" fill="#292828"/>
</g>
<defs>
<clipPath id="clip0_20_655">
<rect width="16" height="16" fill="white"/>
</clipPath>
</defs>
</svg>
