<svg width="24" height="24" viewBox="0 0 24 24" fill="none" xmlns="http://www.w3.org/2000/svg">
<g clip-path="url(#clip0_20_628)">
<path d="M21 24H18V19C18 18.4696 17.7893 17.9609 17.4142 17.5858C17.0391 17.2107 16.5304 17 16 17H8C7.46957 17 6.96086 17.2107 6.58579 17.5858C6.21071 17.9609 6 18.4696 6 19V24H3V19C3.00159 17.6744 3.52888 16.4036 4.46622 15.4662C5.40356 14.5289 6.67441 14.0016 8 14H16C17.3256 14.0016 18.5964 14.5289 19.5338 15.4662C20.4711 16.4036 20.9984 17.6744 21 19V24Z" fill="#292828"/>
<path d="M12 12C10.8133 12 9.65328 11.6481 8.66658 10.9888C7.67989 10.3295 6.91085 9.39246 6.45673 8.2961C6.0026 7.19975 5.88378 5.99335 6.11529 4.82946C6.3468 3.66558 6.91825 2.59648 7.75736 1.75736C8.59648 0.918247 9.66558 0.346802 10.8295 0.115291C11.9933 -0.11622 13.1997 0.00259972 14.2961 0.456726C15.3925 0.910851 16.3295 1.67989 16.9888 2.66658C17.6481 3.65328 18 4.81331 18 6C17.9984 7.59081 17.3658 9.11602 16.2409 10.2409C15.116 11.3658 13.5908 11.9984 12 12ZM12 3C11.4067 3 10.8266 3.17595 10.3333 3.50559C9.83994 3.83524 9.45543 4.30377 9.22836 4.85195C9.0013 5.40013 8.94189 6.00333 9.05765 6.58527C9.1734 7.16722 9.45912 7.70177 9.87868 8.12132C10.2982 8.54088 10.8328 8.8266 11.4147 8.94236C11.9967 9.05812 12.5999 8.9987 13.1481 8.77164C13.6962 8.54458 14.1648 8.16006 14.4944 7.66671C14.8241 7.17337 15 6.59335 15 6C15 5.20435 14.6839 4.44129 14.1213 3.87868C13.5587 3.31607 12.7957 3 12 3Z" fill="#292828"/>
</g>
<defs>
<clipPath id="clip0_20_628">
<rect width="24" height="24" fill="white"/>
</clipPath>
</defs>
</svg>
