<svg width="24" height="24" viewBox="0 0 24 24" fill="none" xmlns="http://www.w3.org/2000/svg">
<g clip-path="url(#clip0_20_730)">
<path d="M7.5 13C6.60998 13 5.73995 12.7361 4.99993 12.2416C4.25991 11.7472 3.68314 11.0443 3.34254 10.2221C3.00195 9.39981 2.91283 8.49501 3.08647 7.6221C3.2601 6.74918 3.68868 5.94736 4.31802 5.31802C4.94736 4.68869 5.74918 4.2601 6.62209 4.08647C7.49501 3.91284 8.39981 4.00195 9.22208 4.34254C10.0443 4.68314 10.7471 5.25991 11.2416 5.99994C11.7361 6.73996 12 7.60999 12 8.5C11.9987 9.69307 11.5241 10.8369 10.6805 11.6805C9.83689 12.5241 8.69307 12.9987 7.5 13ZM7.5 7C7.20333 7 6.91332 7.08798 6.66664 7.2528C6.41997 7.41762 6.22771 7.65189 6.11418 7.92598C6.00065 8.20007 5.97094 8.50167 6.02882 8.79264C6.0867 9.08361 6.22956 9.35088 6.43934 9.56066C6.64912 9.77044 6.91639 9.9133 7.20736 9.97118C7.49834 10.0291 7.79994 9.99935 8.07403 9.88582C8.34811 9.77229 8.58238 9.58003 8.7472 9.33336C8.91203 9.08668 9 8.79667 9 8.5C9 8.10218 8.84196 7.72065 8.56066 7.43934C8.27936 7.15804 7.89782 7 7.5 7ZM15 20.5C14.9984 19.0418 14.4184 17.6438 13.3873 16.6127C12.3562 15.5816 10.9582 15.0016 9.5 15H5.5C4.0418 15.0016 2.64377 15.5816 1.61267 16.6127C0.581561 17.6438 0.00158817 19.0418 0 20.5L0 24H3V20.5C3 19.837 3.26339 19.2011 3.73223 18.7322C4.20107 18.2634 4.83696 18 5.5 18H9.5C9.8283 18 10.1534 18.0647 10.4567 18.1903C10.76 18.3159 11.0356 18.5001 11.2678 18.7322C11.4999 18.9644 11.6841 19.24 11.8097 19.5433C11.9353 19.8466 12 20.1717 12 20.5V24H15V20.5ZM17.5 9C16.61 9 15.74 8.73608 14.9999 8.24162C14.2599 7.74715 13.6831 7.04435 13.3425 6.22208C13.0019 5.39981 12.9128 4.49501 13.0865 3.6221C13.2601 2.74918 13.6887 1.94736 14.318 1.31802C14.9474 0.688685 15.7492 0.260102 16.6221 0.0864683C17.495 -0.0871652 18.3998 0.00194979 19.2221 0.342544C20.0443 0.683139 20.7471 1.25991 21.2416 1.99994C21.7361 2.73996 22 3.60999 22 4.5C21.9987 5.69307 21.5241 6.83689 20.6805 7.68052C19.8369 8.52415 18.6931 8.99868 17.5 9ZM17.5 3C17.2033 3 16.9133 3.08798 16.6666 3.2528C16.42 3.41762 16.2277 3.65189 16.1142 3.92598C16.0007 4.20007 15.9709 4.50167 16.0288 4.79264C16.0867 5.08361 16.2296 5.35088 16.4393 5.56066C16.6491 5.77044 16.9164 5.9133 17.2074 5.97118C17.4983 6.02906 17.7999 5.99935 18.074 5.88582C18.3481 5.77229 18.5824 5.58003 18.7472 5.33336C18.912 5.08668 19 4.79667 19 4.5C19 4.10218 18.842 3.72065 18.5607 3.43934C18.2794 3.15804 17.8978 3 17.5 3ZM24 16.5C23.9984 15.0418 23.4184 13.6438 22.3873 12.6127C21.3562 11.5816 19.9582 11.0016 18.5 11H15V14H18.5C19.163 14 19.7989 14.2634 20.2678 14.7322C20.7366 15.2011 21 15.837 21 16.5V20H24V16.5Z" fill="#292828"/>
</g>
<defs>
<clipPath id="clip0_20_730">
<rect width="24" height="24" fill="white"/>
</clipPath>
</defs>
</svg>
