<svg width="24" height="24" viewBox="0 0 24 24" fill="none" xmlns="http://www.w3.org/2000/svg">
<g clip-path="url(#clip0_22_833)">
<path d="M14.939 11.268L17.061 13.389L13.475 16.975C13.15 17.3 12.7641 17.5579 12.3395 17.7338C11.9148 17.9097 11.4597 18.0003 11 18.0003C10.5403 18.0003 10.0852 17.9097 9.66053 17.7338C9.23586 17.5579 8.85001 17.3 8.525 16.975L6.939 15.39L9.061 13.268L10.646 14.853C10.7398 14.9467 10.8669 14.9994 10.9995 14.9994C11.1321 14.9994 11.2592 14.9467 11.353 14.853L14.939 11.268ZM22 5.879V24H2V3C2 2.20435 2.31607 1.44129 2.87868 0.87868C3.44129 0.31607 4.20435 0 5 0L16.121 0L22 5.879ZM19 21V8H14V3H5V21H19Z" fill="#292828"/>
</g>
<defs>
<clipPath id="clip0_22_833">
<rect width="24" height="24" fill="white"/>
</clipPath>
</defs>
</svg>
