<svg width="24" height="24" viewBox="0 0 24 24" fill="none" xmlns="http://www.w3.org/2000/svg">
<g clip-path="url(#clip0_20_807)">
<path d="M18 24H15V20.5C15 20.3674 14.9473 20.2402 14.8536 20.1465C14.7598 20.0527 14.6326 20 14.5 20H9.5C9.36739 20 9.24021 20.0527 9.14645 20.1465C9.05268 20.2402 9 20.3674 9 20.5V24H6V20.5C6 19.5717 6.36875 18.6815 7.02513 18.0251C7.6815 17.3688 8.57174 17 9.5 17H14.5C15.4283 17 16.3185 17.3688 16.9749 18.0251C17.6313 18.6815 18 19.5717 18 20.5V24ZM12 16C12.6922 16 13.3689 15.7947 13.9445 15.4101C14.5201 15.0256 14.9687 14.4789 15.2336 13.8394C15.4985 13.1999 15.5678 12.4961 15.4327 11.8172C15.2977 11.1383 14.9644 10.5146 14.4749 10.0251C13.9854 9.53565 13.3617 9.2023 12.6828 9.06725C12.0039 8.93221 11.3001 9.00152 10.6606 9.26642C10.0211 9.53133 9.47444 9.97993 9.08986 10.5555C8.70527 11.1311 8.5 11.8078 8.5 12.5C8.5 13.4283 8.86875 14.3185 9.52513 14.9749C10.1815 15.6313 11.0717 16 12 16ZM18 7C18.6922 7 19.3689 6.79473 19.9445 6.41015C20.5201 6.02556 20.9687 5.47894 21.2336 4.83939C21.4985 4.19985 21.5678 3.49612 21.4327 2.81719C21.2977 2.13825 20.9644 1.51461 20.4749 1.02513C19.9854 0.535644 19.3617 0.202301 18.6828 0.0672531C18.0039 -0.0677952 17.3001 0.00151652 16.6606 0.266423C16.0211 0.53133 15.4744 0.979934 15.0899 1.55551C14.7053 2.13108 14.5 2.80777 14.5 3.5C14.5 4.42826 14.8687 5.3185 15.5251 5.97488C16.1815 6.63125 17.0717 7 18 7ZM6 7C6.69223 7 7.36892 6.79473 7.9445 6.41015C8.52007 6.02556 8.96867 5.47894 9.23358 4.83939C9.49849 4.19985 9.5678 3.49612 9.43275 2.81719C9.2977 2.13825 8.96436 1.51461 8.47487 1.02513C7.98539 0.535644 7.36175 0.202301 6.68282 0.0672531C6.00388 -0.0677952 5.30015 0.00151652 4.66061 0.266423C4.02107 0.53133 3.47444 0.979934 3.08986 1.55551C2.70527 2.13108 2.5 2.80777 2.5 3.5C2.5 4.42826 2.86875 5.3185 3.52513 5.97488C4.1815 6.63125 5.07174 7 6 7ZM8.8 8.031C8.7 8.022 8.6 8 8.5 8H3.5C2.57174 8 1.6815 8.36875 1.02513 9.02513C0.368749 9.68151 0 10.5717 0 11.5L0 15H3V11.5C3 11.3674 3.05268 11.2402 3.14645 11.1464C3.24021 11.0527 3.36739 11 3.5 11H6.712C7.05198 9.80257 7.78808 8.75588 8.8 8.031ZM20.5 8H15.5C15.4 8 15.3 8.022 15.2 8.031C16.2119 8.75588 16.948 9.80257 17.288 11H20.5C20.6326 11 20.7598 11.0527 20.8536 11.1464C20.9473 11.2402 21 11.3674 21 11.5V15H24V11.5C24 10.5717 23.6313 9.68151 22.9749 9.02513C22.3185 8.36875 21.4283 8 20.5 8Z" fill="#292828"/>
</g>
<defs>
<clipPath id="clip0_20_807">
<rect width="24" height="24" fill="white"/>
</clipPath>
</defs>
</svg>
