<svg width="24" height="24" viewBox="0 0 24 24" fill="none" xmlns="http://www.w3.org/2000/svg">
<g clip-path="url(#clip0_21_819)">
<path d="M22.5 18.4V16.5C22.5 15.5717 22.1313 14.6815 21.4749 14.0251C20.8185 13.3687 19.9283 13 19 13H13.5V10.792C14.7772 10.4299 15.8803 9.61817 16.6059 8.50646C17.3314 7.39476 17.6304 6.05815 17.4476 4.74328C17.2649 3.4284 16.6127 2.224 15.6115 1.35232C14.6102 0.480631 13.3275 0.000488281 12 0.000488281C10.6725 0.000488281 9.38977 0.480631 8.38854 1.35232C7.38731 2.224 6.73514 3.4284 6.55238 4.74328C6.36961 6.05815 6.66858 7.39476 7.39412 8.50646C8.11967 9.61817 9.22281 10.4299 10.5 10.792V13H5C4.07174 13 3.1815 13.3687 2.52513 14.0251C1.86875 14.6815 1.5 15.5717 1.5 16.5V18.4C0.928076 18.7302 0.481088 19.2399 0.228362 19.85C-0.0243627 20.4601 -0.0687012 21.1366 0.102224 21.7745C0.273148 22.4124 0.649784 22.9761 1.17372 23.3781C1.69765 23.7802 2.3396 23.9981 3 23.9981C3.6604 23.9981 4.30235 23.7802 4.82629 23.3781C5.35022 22.9761 5.72685 22.4124 5.89778 21.7745C6.0687 21.1366 6.02437 20.4601 5.77164 19.85C5.51891 19.2399 5.07193 18.7302 4.5 18.4V16.5C4.5 16.3674 4.55268 16.2402 4.64645 16.1464C4.74022 16.0527 4.86739 16 5 16H10.5V18.4C9.92808 18.7302 9.48109 19.2399 9.22836 19.85C8.97564 20.4601 8.9313 21.1366 9.10222 21.7745C9.27315 22.4124 9.64979 22.9761 10.1737 23.3781C10.6977 23.7802 11.3396 23.9981 12 23.9981C12.6604 23.9981 13.3024 23.7802 13.8263 23.3781C14.3502 22.9761 14.7269 22.4124 14.8978 21.7745C15.0687 21.1366 15.0244 20.4601 14.7716 19.85C14.5189 19.2399 14.0719 18.7302 13.5 18.4V16H19C19.1326 16 19.2598 16.0527 19.3536 16.1464C19.4473 16.2402 19.5 16.3674 19.5 16.5V18.4C18.9281 18.7302 18.4811 19.2399 18.2284 19.85C17.9756 20.4601 17.9313 21.1366 18.1022 21.7745C18.2732 22.4124 18.6498 22.9761 19.1737 23.3781C19.6977 23.7802 20.3396 23.9981 21 23.9981C21.6604 23.9981 22.3024 23.7802 22.8263 23.3781C23.3502 22.9761 23.7269 22.4124 23.8978 21.7745C24.0687 21.1366 24.0244 20.4601 23.7716 19.85C23.5189 19.2399 23.0719 18.7302 22.5 18.4ZM9.5 5.49999C9.5 5.00554 9.64662 4.52219 9.92133 4.11107C10.196 3.69994 10.5865 3.37951 11.0433 3.19029C11.5001 3.00107 12.0028 2.95156 12.4877 3.04803C12.9727 3.14449 13.4181 3.38259 13.7678 3.73222C14.1174 4.08186 14.3555 4.52731 14.452 5.01227C14.5484 5.49722 14.4989 5.99988 14.3097 6.4567C14.1205 6.91351 13.8001 7.30396 13.3889 7.57866C12.9778 7.85337 12.4945 7.99999 12 7.99999C11.337 7.99999 10.7011 7.7366 10.2322 7.26776C9.76339 6.79892 9.5 6.16303 9.5 5.49999Z" fill="#292828"/>
</g>
<defs>
<clipPath id="clip0_21_819">
<rect width="24" height="24" fill="white"/>
</clipPath>
</defs>
</svg>
