<svg width="24" height="24" viewBox="0 0 24 24" fill="none" xmlns="http://www.w3.org/2000/svg">
<g clip-path="url(#clip0_20_719)">
<path d="M12 16.363C11.137 16.363 10.2935 16.1072 9.57601 15.6277C8.85852 15.1483 8.2993 14.4669 7.96908 13.6697C7.63885 12.8725 7.55245 11.9952 7.7208 11.1489C7.88915 10.3025 8.30468 9.52511 8.91486 8.91493C9.52503 8.30475 10.3024 7.88922 11.1488 7.72087C11.9951 7.55252 12.8724 7.63893 13.6696 7.96915C14.4668 8.29938 15.1483 8.85859 15.6277 9.57608C16.1071 10.2936 16.363 11.1371 16.363 12C16.3616 13.1568 15.9015 14.2657 15.0836 15.0837C14.2657 15.9016 13.1567 16.3617 12 16.363ZM12 10.637C11.7304 10.637 11.4669 10.717 11.2427 10.8667C11.0186 11.0165 10.8439 11.2294 10.7407 11.4784C10.6376 11.7275 10.6106 12.0015 10.6632 12.2659C10.7157 12.5303 10.8456 12.7732 11.0362 12.9638C11.2268 13.1544 11.4697 13.2843 11.7341 13.3368C11.9985 13.3894 12.2725 13.3624 12.5216 13.2593C12.7706 13.1561 12.9835 12.9814 13.1333 12.7573C13.283 12.5331 13.363 12.2696 13.363 12C13.3627 11.6386 13.219 11.2921 12.9635 11.0365C12.7079 10.781 12.3614 10.6373 12 10.637Z" fill="#292828"/>
<path d="M22 12C21.9969 13.2452 21.7594 14.4787 21.3 15.636L23.145 16.7L21.645 19.3L19.806 18.234C18.2366 20.1975 15.9851 21.4975 13.5 21.875V24H10.5V21.875C8.01756 21.4974 5.76834 20.1989 4.19998 18.238L2.35798 19.3L0.85798 16.7L2.69998 15.641C1.77263 13.304 1.77263 10.701 2.69998 8.364L0.85498 7.3L2.35498 4.7L4.19398 5.761C5.76417 3.79938 8.01564 2.50119 10.5 2.125V0H13.5V2.125C15.9824 2.50259 18.2316 3.80107 19.8 5.762L21.64 4.699L23.14 7.299L21.3 8.359C21.7594 9.51808 21.9969 10.7532 22 12ZM12 5C10.6155 5 9.26213 5.41054 8.11099 6.17971C6.95985 6.94888 6.06264 8.04213 5.53282 9.32122C5.00301 10.6003 4.86439 12.0078 5.13448 13.3656C5.40458 14.7235 6.07127 15.9708 7.05023 16.9497C8.0292 17.9287 9.27648 18.5954 10.6343 18.8655C11.9922 19.1356 13.3997 18.997 14.6788 18.4672C15.9578 17.9373 17.0511 17.0401 17.8203 15.889C18.5894 14.7378 19 13.3845 19 12C18.9976 10.1442 18.2593 8.36512 16.9471 7.05288C15.6349 5.74064 13.8558 5.00238 12 5Z" fill="#292828"/>
</g>
<defs>
<clipPath id="clip0_20_719">
<rect width="24" height="24" fill="white" transform="matrix(1 0 0 -1 0 24)"/>
</clipPath>
</defs>
</svg>
