<svg width="16" height="16" viewBox="0 0 16 16" fill="none" xmlns="http://www.w3.org/2000/svg">
<g clip-path="url(#clip0_20_637)">
<path d="M15.3334 2H12.0001V1.66667C12.0001 1.22464 11.8245 0.800716 11.5119 0.488155C11.1994 0.175595 10.7754 0 10.3334 0L5.66675 0C5.22472 0 4.8008 0.175595 4.48824 0.488155C4.17568 0.800716 4.00008 1.22464 4.00008 1.66667V2H0.666748V4H2.00008V14C2.00008 14.5304 2.2108 15.0391 2.58587 15.4142C2.96094 15.7893 3.46965 16 4.00008 16H12.0001C12.5305 16 13.0392 15.7893 13.4143 15.4142C13.7894 15.0391 14.0001 14.5304 14.0001 14V4H15.3334V2ZM12.0001 14H4.00008V4H12.0001V14Z" fill="#292828"/>
<path d="M7.33325 6H5.33325V12H7.33325V6Z" fill="#292828"/>
<path d="M10.6667 6H8.66675V12H10.6667V6Z" fill="#292828"/>
</g>
<defs>
<clipPath id="clip0_20_637">
<rect width="16" height="16" fill="white"/>
</clipPath>
</defs>
</svg>
